<svg height="102" viewBox="0 0 102 102" width="102" xmlns="http://www.w3.org/2000/svg"><g fill="none" fill-rule="evenodd"><circle cx="51" cy="51" r="50" stroke="#1e7b85" stroke-width="2"/><g fill="#87064b" fill-rule="nonzero" transform="translate(28 19)"><path d="m18.3567269 22.650137c1.2594458.3863368 2.6118617.3547501 3.8517118-.0899021l2.6509905 4.9178963c.0024454.0048593 0 .0072889 0 .0121488v3.5377976c0 .5369863.437754.9719224.9782194.9719224.5404655 0 .9782195-.4349361.9782195-.9719224v-7.5421179l4.2014292-8.037876c1.93196.6025919 4.0400308.218681 5.6321026-1.0253548 1.5945134-1.2440607 2.4675547-3.1879055 2.3379602-5.19494858l-.5404655-8.31965578c0-.00485993-.0024454-.00971923-.0024454-.01457915-.002446-.02915767-.0073368-.060745-.0122275-.08990205-.0024461-.00728957-.0024461-.01700879-.0048915-.02429837h.0024454c-.0073368-.03644662-.0171183-.07289573-.0293465-.10934049-.0024454-.00728957-.0048908-.01457853-.0097822-.0218681-.0097822-.02672802-.0220098-.05588569-.0342374-.08261185-.0048914-.0097186-.0097822-.01943845-.0146736-.02915705-.0122276-.02672802-.0269006-.05102639-.0440196-.07532165-.0048914-.00728958-.0073368-.01457915-.0122282-.0218681h.0048914c-.0220098-.03158794-.0440202-.0631734-.0684785-.09233418l-.0024454-.00242965c-.0244558-.02672803-.0489109-.05345605-.0758096-.08018594-.0073368-.00728957-.0146736-.01214949-.0220098-.01943844-.0220098-.01943845-.0440202-.03644725-.0684785-.05345605-.0097822-.00728957-.017119-.01214887-.0269012-.01943844-.0269012-.0170088-.0538024-.0340176-.0807055-.04859612-.0048914-.00242966-.0097821-.00728958-.0146736-.00971923 0 0-.0024454 0-.0048907-.00242965 0 0-.0024454-.00242965-.0048915-.00242965h.0024461c-.034238-.0170088-.0684785-.03158794-.1027115-.04373682-.0073368-.00242965-.014673-.00485992-.0220098-.00728957-.0293466-.00971923-.0586932-.01943845-.0880366-.0267274-.0097822-.00243028-.0195644-.00485993-.0293466-.00728958-.0293466-.00728957-.0586932-.01214887-.0904845-.01457914-.0073368 0-.017119-.00242965-.0244558-.00242965v-.00242965c-.0758097-.00728958-.1516256-.00485993-.2249936.0048593-.0097822.00243027-.0220098.00243027-.031792.00485992-.0269012.0048593-.0538024.00971922-.0782576.0170088-.0122276.00242965-.0244558.0048593-.034238.0097186h-.0024454c-.0317919.00971985-.0635827.01943845-.0929324.03158794-.0048914.00242965-.0073368.00242965-.0122282.00485931-.0342374.01457914-.0684785.03158794-.1002698.05102639-.0024454.00242965-.0073368.00242965-.0097822.0048593l-7.2560409 4.22060025c-2.4529049 1.43601924-3.5925227 4.35906421-2.7536643 7.06315452l.0024454.0048599c.3986252 1.2732339 1.2081089 2.3836203 2.301273 3.1587323l-4.2968408 8.222619c-.0758096.1360691-.1149384.2891446-.1173863.4470843v.133637l-.943974-1.759164c1.6164881-1.2367829 2.5066835-3.1903314 2.3795306-5.2143559-.1296133-2.0215986-1.2618874-3.8488127-3.0226825-4.8717416l-7.2485281-4.21811215c-.0048914-.00243028-.0073368-.00485993-.0122276-.00728958-.0293472-.01457914-.0562478-.02915767-.085595-.04373682-.0048914-.00242965-.0122276-.0048593-.017119-.00728895v.00242965c-.0342373-.01457914-.0709201-.02672802-.1076072-.03887689-.0097822-.00242965-.017119-.00485993-.0269012-.00728958-.0293466-.00728957-.0562472-.01214887-.085595-.01700879-.0097816-.00242966-.0220098-.00242966-.031792-.00485931-.031792-.00485992-.0611386-.00728957-.0929324-.00728957h-.0195644.0024454c-.0391288-.00242965-.0782576 0-.1173864.0048593-.0024453 0-.0073368 0-.0097822.00243027v-.00243027c-.0342373.00485992-.0684784.00971985-.1002698.0170088-.0097822.00242965-.0195644.00485992-.0293466.00728957-.0293466.00728958-.0562478.01457853-.0831471.02429837-.0097822.00242965-.0195644.00728896-.0293466.00971861v.00243027c-.0342373.01214887-.0660306.02672802-.095374.04130655-.0024454.00242965-.0073362.00242965-.0097816.00485992h-.0048914v.00242965c-.0342374.01943845-.0660306.03887689-.095374.06074499-.0073368.0048593-.014673.01214888-.0220098.0170088-.0244558.0170088-.0464656.03644725-.0684785.05588569-.0073368.00728896-.0146736.01457853-.0220098.01943845-.0220098.0218681-.0440202.0437362-.0635827.06560554-.0048908.00485993-.0097822.00971923-.014673.0170088h-.0024454c-.0244558.02915767-.0464655.060745-.0684785.09233418-.0024454.00242965-.0024454.0048593-.0048907.00728896-.017119.02915767-.034238.05831534-.048911.08990204-.0048914.0097186-.0097822.01943845-.014673.02915705-.0122282.02429837-.0220104.04859674-.0293472.07532165-.0048908.00971923-.0073362.0218681-.0122276.03158795-.0122276.03401697-.0220098.0704636-.0293466.10690835v.00728958c-.0073362.03644724-.0122276.07046359-.014673.10691457 0 .00485992-.002446.00728957-.002446.0121495l-.5380176 8.31467955c-.2054292 2.8331616 1.5993967 5.4282099 4.3408529 6.2370982zm15.7197523-9.0486754-.0024454.0024297c-.6896682.2113908-1.4257275.2381194-2.1300455.0801859l4.7785943-9.16250689.3130302 4.83286471c.1393987 1.93171518-1.0931641 3.69815698-2.961579 4.24971128zm-5.2359315-2.7578337c-.5722569-1.84419554.2054229-3.83425721 1.8781814-4.81588328l4.3286447-2.5197205-4.8617352 9.31801448v.0024296c-.6333854-.5175479-1.1004891-1.2076097-1.3450283-1.9851476zm-9.9117894 9.9475092-.0048914-.0024303v.0024303c-1.8659732-.5515668-3.0960568-2.3204842-2.9542541-4.2497113l.3203677-4.9276621 4.9791215 9.206671h-.0024454c-.7654842.2138229-1.5773594.2041068-2.3379602-.029157zm5.2359316-2.7602596c-.2225458.7094878-.6333854 1.3485617-1.1860716 1.8466836l-4.9375511-9.1314053 4.240558 2.4662258c1.6727709.9792002 2.4529049 2.9716256 1.8830647 4.8183092z"/><path d="m46.7781455 32.1048948-7.0749124 5.3629541v-.0024611c-1.4712934-1.8139042-3.7899229-2.6851629-6.0720685-2.2839983l-7.2302957 1.2823154c-1.1532548.2018172-2.3355974.1402911-3.4597024-.1821276l-.8084903-.2338121c-4.1565033-1.2109287-8.6337176-.2682706-11.9694863 2.5178167l-.30348223-1.7646958h-.00242771c-.09226039-.5365412-.59482592-.8934372-1.12410494-.799872l-7.9295205 1.4053678c-.52684883.0935274-.88133407.605458-.78903639 1.1395419l3.0445182 17.6393976c.08012185.4700878.48314262.8146786.95660174.8146786.05584103 0 .1116833-.0049227.16752184-.0147675l7.92952049-1.4053678c.5268488-.0935274.8813341-.6054581.7890364-1.1395419l-.1505291-.8688015 1.8452077-1.5505355c.7235268-.6128425 1.6558266-.9130953 2.5953983-.8417085l12.9309982.957389c.0218506.0024611.0437012.0024611.0655531.0024611h.0801218-.0024277c2.8527131-.0049221 5.6302206-.9279019 7.9369789-2.6334973.0364175-.0270728.0704073-.0566072.1043989-.0910638l15.399728-15.2867219c.3690353-.3642552.3908884-.9549318.055841-1.3487246-1.777212-2.0797301-4.8533041-2.3775005-6.98479-.6743623zm-41.9727582 22.7713056-2.70951181-15.7000468 6.01625486-1.0656979 2.70951185 15.7000468zm32.1935549-6.9011403c-1.9592591 1.4398326-4.3143105 2.2175261-6.7324476 2.2298755h-.0364181l-12.8968138-.9721957c-1.4397195-.113217-2.8648951.3470291-3.976818 1.2797951l-.9905996.8294222-1.8087859-10.4799293c1.4154176-1.4447471 3.1853576-2.4784375 5.1276489-2.9928254 1.9422912-.5143942 3.986576-.4873202 5.9142612.0738377l.8084904.2338121v-.002461c1.4081456.4036345 2.8867109.482393 4.3264304.2288913l7.2302957-1.2823154c2.0733726-.3642552 4.1176574.7752992 4.9237238 2.7467206l-10.8258652 1.9197557c-.4977113.0861429-.8449122.5439255-.8012184 1.0534115.0437012.5094671.4637197.9008089.9662976.9008089.0582688 0 .1141073-.0049227.1699521-.0147669l11.8868223-2.106823-.0024277-.0024617c.5292728-.0935274.8813341-.6029945.7890364-1.1395419-.0776916-.4479409-.2015135-.8885226-.3690353-1.3093453l7.2495632-5.4934413c.0072837-.004922.0145674-.0098441.0194229-.0147669v-.002461c1.0488372-.836794 2.5055246-.910638 3.6296295-.1845912z"/></g></g></svg>