<svg height="102" viewBox="0 0 102 102" width="102" xmlns="http://www.w3.org/2000/svg"><g fill="none" fill-rule="evenodd"><circle cx="51" cy="51" r="50" stroke="#1e7b85" stroke-width="2"/><g fill="#87064b" fill-rule="nonzero" transform="translate(21 22)"><path d="m32.8541176 3.29338c0 3.848806-5.756 3.848806-5.756 0s5.756-3.848806 5.756 0"/><path d="m14.8852941 7.77384c2.4655294 2.95-1.9439412 6.66051-4.4117647 3.71287-2.4655294-2.95 1.9439412-6.66051 4.4117647-3.71287"/><path d="m3.966 22.78875c3.77988235.668352 2.78035294 6.3543-.99952941 5.685653-3.77988236-.668352-2.77805882-6.3543.99952941-5.685653"/><path d="m9.17764706 42.38796c1.91864704 3.334857-3.06752941 6.22037-4.9862353 2.887755-1.91864705-3.332556 3.0652353-6.22037 4.9862353-2.887755"/><path d="m21.7852941 52.98495c3.6052353 1.315995 1.636 6.74134-1.9692353 5.425227-3.6075294-1.315995-1.6383529-6.7437 1.9692353-5.425227"/><path d="m41.93 54.72014c1.3120588 3.616051-4.0969412 5.591194-5.409 1.972842-1.3120588-3.616051 4.0969412-5.591194 5.409-1.972842"/><path d="m54.7770588 41.32537c3.3248824 1.924403.4457706 6.92542-2.8768235 5.001194-3.3248824-1.924403-.4457706-6.92542 2.8768235-5.001194"/><path d="m49.1776471 43.86945 2.1185882-3.682898c.0114888-.0161324.0252759-.0299608.0344671-.0483983.02068-.0345705.0367647-.0714431.055147-.1083181l.0068935-.0115233c.0022977-.0046096.0022977-.0069142.0045953-.0115233.2780353-.553125.3285824-1.20537.1838236-1.813778-.2366706-.995625-.882353-1.945171-1.8957059-2.947699-.6181177-.606107-1.381-1.226079-2.2977647-1.862158 1.6681764-.4355852 2.9733529-.967954 3.9591176-1.583324.6985294-.4401931 1.2408236-.924176 1.6130588-1.495768.3446706-.5231648.5193-1.156931.4457706-1.774602v-.0046096-.0046091c-.0045953-.0414847-.0091906-.0852727-.0160841-.1290625-.0045959-.0207421-.0114888-.0391796-.0160847-.0599204l-.7352941-4.185342c-.0022977-.0207421 0-.0391796-.0045959-.0599204-.0068929-.0414847-.0183823-.0806648-.0275729-.1221477l-.0022983-.0092194c0-.0023045-.0022976-.004609-.0022976-.0092181-.1424647-.603806-.5193-1.136222-1.0225294-1.509574-.818-.608408-1.9232353-.919574-3.341-1.034801-.8570588-.0645342-1.8359412-.0507034-2.9388824.0530074.9926471-1.405852 1.6521177-2.652699 2.0105883-3.754347.2527588-.78588.3584588-1.509574.2780353-2.184829-.0712295-.624574-.3423706-1.221477-.7950589-1.645569-.0022976-.0023046-.0022976-.0023046-.0045959-.0046091l-.0045952-.0046091c-.0321695-.0299614-.0620412-.0599204-.0942118-.0875796-.0160847-.0138284-.0344671-.0230466-.0505518-.0345705l-3.2467647-2.733352c-.0137865-.0138284-.0252759-.0299614-.0413606-.0414846-.0298711-.0276563-.0643353-.0483983-.0965059-.07375l-.0091911-.0092188c-.0022977-.0023045-.0068936-.0046091-.0091912-.0069136-.4963235-.3710569-1.1259412-.5346875-1.7486471-.4955056-1.0179411.0599204-2.0634117.5346875-3.2238235 1.362074-.7054118.5070283-1.4545294 1.159232-2.2426471 1.961278-.1378705-1.735426-.4342823-3.127472-.8685882-4.21065301-.3102-.765171-.691647-1.387444-1.1879412-1.852954-.4549647-.4309773-1.0431764-.714431-1.6612941-.749005h-.0091906-.0091917c-.04136-.00230454-.0827177-.00691421-.1240824-.00691421-.02068 0-.0390623.00460967-.0597412.00691421h-4.2394117c-.02068-.00230454-.0390624-.00691421-.0597412-.00691421-.0413606 0-.0827177.00460967-.1240824.00691421h-.0160841-.0091917c-.6181177.03457046-1.206353.3180454-1.6612942.749005-.7398823.702926-1.2385294 1.740028-1.5969411 3.12056901-.2136942.834319-.3676471 1.802273-.4572589 2.910824-1.2017647-1.219176-2.3092941-2.081107-3.3248823-2.625028-.7284118-.3871875-1.4200588-.617671-2.0978824-.654546-.625-.036875-1.2568823.1267556-1.7532353.4978125-.0022982.0023045-.0045958.0023045-.0068935.0046097l-.0068935.0069136c-.0344671.0253517-.0689353.0483989-.0988059.0760569-.0160841.0138284-.0275735.0299614-.04136.0437892l-3.2467647 2.731051c-.0160847.0115233-.0344671.020742-.0505518.0345699-.0321694.0276562-.0620411.0576176-.0919117.0852727l-.0068936.0069142c-.0022976.0023051-.0045953.0046096-.0068935.0069142-.4503647.4263694-.7215294 1.020995-.7927647 1.643268-.1171882 1.016393.1654412 2.129546.7766471 3.420171.3722411.776676.8731764 1.617898 1.5142353 2.523607-1.7118824-.1613296-3.1181177-.1083181-4.2509412.1313694-.80652944.1728523-1.48205885.4425-2.02664708.850426-.50321765.3733579-.88235294.908069-1.02252941 1.511875 0 .0023045-.00229765.0046091-.00229765.0092181l-.00229765.0092194c-.00919117.0414841-.02068059.0806648-.02757353.1221477-.00459588.020742-.00229764.0391795-.00459588.0599204l-.73529412 4.187643c-.00459529.0184375-.01378647.036875-.01608412.057617-.00689352.0414841-.01148941.0806648-.0160847.1221477l-.00229765.0115233v.0115239c-.07352941.61537.1011 1.246847.44577059 1.77.56065882.852727 1.49358824 1.52338 2.78723529 2.117982.78582351.3572273 1.71647061.679857 2.79641181.961051-1.4154118.981819-2.4609412 1.929005-3.17552945 2.841676-.50551765.652245-.85247059 1.295227-1.00641177 1.958977-.14475882.610768-.09421176 1.262954.18382353 1.81838.00229824.0023045.00229824.0046091.00459588.0069136l.00459589.0069142c.01838235.036875.0367647.0760569.0574447.1129319.00919118.0184375.02297765.0322659.03446706.0483983l2.12088236 3.682898c.0091912.0184375.0137871.036875.0229782.053008.02068.0345704.0436583.0691421.0666353.1037102l.0068936.0115233c.0022976.0046096.0045952.0069142.0068935.0092187.3400706.5185569.8754706.887301 1.4751765 1.067074.9765882.2926931 2.1208823.2051194 3.492647-.1728523.8271765-.2327727 1.744-.5830852 2.7458824-1.060171-.4526647 1.657074-.648 3.053722-.6112353 4.210653.0298717.825056.1769294 1.541847.4848353 2.147954.2803294.5623408.7375882 1.027898 1.3074706 1.274518.0022982 0 .0045958.0023051.0068935.0046097l.0091912.0023045c.0390623.016133.0758294.0345705.1148882.0483983.0183823.0069142.0390623.0092188.0574447.016133l3.9843529 1.454232c.0183824.0069142.0344671.0184375.0528495.0253517.0390623.0138278.0781235.0253511.1171882.036875l.0114888.0046091c.0045959.0023045.0068935.0023045.0114888.0023045.5928236.1774602 1.2408236.1152329 1.8129412-.1336704.9351765-.405625 1.7555294-1.209972 2.564353-2.38537.4848352-.709829.9604705-1.567158 1.4223529-2.576648.7192353 1.571819 1.4682941 2.770227 2.2426471 3.634518.5537705.613069 1.123647 1.067074 1.748647 1.334403.5744471.2489092 1.2247059.3111306 1.8175294.1336704.0022983 0 .0045959 0 .0068936-.0023045l.0068935-.0023052c.04136-.0115233.0804235-.0230465.1217823-.036875.0183824-.0069136.0367647-.0184375.0551471-.0276556l3.9843529-1.454232c.0183824-.0046097.0367647-.0069142.0574447-.0138284.0390624-.0138279.0735295-.0322654.1125942-.0460938l.0114888-.0046091c.0045959-.0023051.0068935-.0046096.0114888-.0046096.5675529-.2442954 1.0248235-.71213 1.3028235-1.272158.4572589-.914972.569853-2.058097.4365824-3.480056-.0850177-.857329-.2688412-1.820681-.5629588-2.892357 1.5555882.739801 2.8952353 1.173097 4.0418235 1.336704.8157059.1129319 1.5441176.0921875 2.1944118-.1037102.5997058-.1797671 1.1397058-.5508181 1.4774705-1.071676 0-.0023046.0022977-.0023046.0045953-.0046091l.0022977-.0046091c.0229782-.036875.0482541-.0714431.0689353-.1083181.0091912-.0253517.013787-.0460938.0229776-.0645342zm-4.5519412-.788181c-1.1581177-.3249602-2.6378824-.95875-4.3887647-1.975143-.0045959-.0023045-.02068-.0115233-.0505518-.0276563-.0091912-.004609-.02068-.0069142-.0298712-.0138284-.0321688-.0161323-.0643411-.0299608-.0988058-.0414841-.0252753-.0092187-.0505512-.0184374-.0781236-.0276562-.0321694-.0092187-.0643412-.0138278-.0965059-.020742-.0275735-.0046097-.0574447-.0092188-.0850176-.0115233-.0321694-.0023052-.0643412-.0023052-.0942118 0-.0298717 0-.0597411 0-.0896117.0046091-.0298706.004609-.0597412.0092187-.0919118.0161329-.0298712.0069136-.0620412.0138278-.0919118.0230466-.0114888.0046097-.0229776.0046097-.034467.0092187-.006893.0023052-.0137865.0046097-.02068.0069142-.0160847.0069143-.0275736.016133-.04136.0230466-.0275741.0115239-.0528494.0253517-.0804236.0414847-.0298711.016133-.0574452.0345705-.0850176.053008-.0229782.0161323-.0436582.0345698-.0666353.0530073-.0275735.0230472-.0528494.0460944-.0758294.0714431-.0183824.0184375-.0344671.0414847-.0528494.0622273-.0229777.0276563-.0436577.0576171-.0643412.0875796-.0068935.0092194-.0137865.0184375-.02068.0276569-.0045959.0069136-.0068935.0138278-.0114888.0184375-.0068935.0115233-.0091912.0230465-.0137871.0345698-.0160847.0345705-.0298712.0668352-.0436576.1037102-.0091918.0253518-.0183824.0507035-.0252759.0760569-.0091912.0345699-.0160847.0691421-.0206806.1037102-.0045953.0276563-.0091906.053008-.0091906.0806648-.0022982.0345699-.0022982.0691421 0 .1060171 0 .0276563.0022977.0553125.0045953.0829658.0045953.0345705.0114888.0668352.0183824.1014092.0068935.0299614.013787.0576171.0229776.0852727.0045959.0138279.0068935.0299608.0114894.0437887.0022977.0023045.0022977.0069142.0045953.0115238.926 2.542074 1.2660588 4.491847 1.2178235 5.7525-.0068935.2143352-.0275735.4033181-.0528494.5761704l-2.0565294-5.667245-5.9005882 2.154857 2.0542353 5.662643c-.3216941-.2834773-.6870588-.691421-1.0638824-1.249148-.6801176-.995625-1.4062353-2.436051-2.0955882-4.344347-.0022977-.004609-.0068935-.020742-.02068-.0530073-.0022982-.0069142-.0068935-.0138285-.0114888-.0207427-.0183824-.0460931-.0413606-.0921875-.0689353-.1359773-.0045953-.0069142-.0091912-.0161329-.0137871-.0253517-.1102941-.1705454-.2711412-.3088296-.4756412-.3848806-.0068935-.0023045-.013787-.004609-.0206805-.0069142-.5032177-.1705454-1.0501177.1014092-1.2224118.606107 0 .0023046-.0022982.0069142-.0045959.0115239-.9191176 2.544375-1.9094706 4.256732-2.7527647 5.190171-.1424647.1590227-.2803294.2926931-.4090059.4079319l2.0565294-5.667245-5.9005882-2.152556-2.0542353 5.662643c-.0643412-.4240625-.0827176-.972556-.0137865-1.643268.1171883-1.200768.4848353-2.772528 1.1764706-4.678523 0-.0046097.006893-.020742.0183824-.053008.0022976-.004609.0022976-.0115232.0045953-.0161323.0114894-.0345705.0183823-.0691421.0229782-.1037102.0068935-.036875.0137865-.0714431.0160841-.1083181v-.0207421c.0275741-.4171477-.2182882-.818153-.6272941-.967954-.0068929-.0023045-.0137865-.004609-.02068-.0069142-.3193941-.1083181-.6571765-.036875-.9030588.1567217-2.2954706 1.325199-4.1245294 1.984347-5.3561765 2.154857-.2114.0299608-.4021118.0437892-.5744471.0483983l5.2068236-3.014546-3.1387647-5.452898-5.2022353 3.012245c.2228882-.3664431.5606588-.797444 1.0431764-1.267556.859353-.843523 2.1484118-1.811477 3.899353-2.825569.0022982-.0023051.0206806-.0115233.0482535-.0299608.4480706-.2742556.5951177-.855028.3331824-1.309092-.0045959-.0069142-.0068936-.0138284-.0114889-.0184375-.1148882-.1889829-.2872235-.3226592-.4802411-.3964092-.02068-.0092181-.04136-.0161323-.0643412-.0230466-.0298712-.0092187-.0620412-.0184375-.0919118-.0230465-.0183823-.0046097-.0367647-.0115239-.0574447-.016133-.0022976 0-.0068935 0-.0114888-.0023045-2.6585294-.4655454-4.5105882-1.145426-5.57447059-1.81838-.18152353-.1129319-.33547647-.2258579-.47104706-.3341819l5.92117645 1.046306 1.0891765-6.20208-5.9170588-1.046306c.4067059-.1382842.9398235-.2512102 1.6107647-.2996079 1.1994706-.0921875 2.8055882-.0023052 4.7977647.3503125.0045959 0 .0229782.004609.055147.0092187h.0068936c.0574447.0092188.1125941.0115233.1700353.0092188h.0229782c.0528494-.0023052.1034-.0115233.1562471-.0230472.0091911-.0023045.02068-.0046091.0298711-.0069136.0459559-.0115239.0919118-.0299614.1378706-.0483989.0137871-.0046091.0252759-.0092188.0390624-.016133.0390629-.0184375.0758294-.041484.1125941-.0645283.0183823-.0115238.0344665-.0230471.0505512-.0345704.0114894-.0092188.0252759-.016133.0367647-.0253517.0045959-.0046097.0114894-.0092188.0183823-.016133.0137871-.0115233.0229783-.0276562.0367647-.0391795.0183824-.0184375.0367647-.0391796.0551471-.0599204.0229782-.0276557.0436582-.0530074.0643412-.0829658.0160847-.0230472.0298711-.0483989.0436582-.07375.0160847-.0276569.0321694-.0576177.0436582-.0875796.0114889-.0276563.0229777-.0576171.0321689-.0852727.0091911-.0299608.0183823-.0599204.0252758-.0898806.0022977-.0138279.0091912-.0276563.0114889-.0414847.0022976-.0069136.0022976-.0161324.0045959-.0230466.0022976-.0161329 0-.0299608.0022976-.0460937.0022976-.0276563.0045959-.0553125.0045959-.0852727 0-.036875 0-.07375-.0045959-.110625-.0022976-.0230472-.0068935-.0437892-.0091912-.0645342-.0068935-.0414847-.0160847-.0829658-.0275735-.1221477-.0045959-.0184375-.0114888-.0345705-.0183824-.0507035-.0160847-.0437892-.034467-.0852727-.055147-.1244546-.0068935-.0138278-.0160847-.0276556-.0229783-.0391795-.0252752-.0437886-.055147-.0829658-.0873176-.1221477-.0045959-.0046097-.0068935-.0092187-.0114888-.0138278-.0022977-.0023052-.0045959-.0046097-.0068936-.0092194-1.7371176-2.069602-2.7205882-3.78662-3.1042941-4.987329-.0666353-.2028125-.1125941-.3894944-.1470588-.5600398l3.8648824 4.62088 4.8092941-4.047046-3.8534118-4.625482c.3998177.1567158.882353.4148408 1.4269412.808949.9788823.702926 2.1507059 1.806875 3.4512941 3.362528.0022982.0023046.0137871.0184375.0367647.0437887l.0068935.0069142c.0252759.0253517.0505518.0483983.0781236.0714431.3515647.3157444.8892353.3341819 1.2591764.0230471.0068936-.0046096.0114889-.0092193.0160842-.0161329.2596529-.2281648.365347-.5669546.3102-.885.0068935-2.648097.3492647-4.558694.818-5.711023.0804235-.1982046.1631411-.37105693.2458647-.52316483v6.03157003h6.28l-.0022977-6.02685003c.2045059.37796583.4090059.88500003.5744471 1.53954603.2987117 1.168495.4894294 2.770227.4894294 4.800653v.057617c.0091912.4401931.3125.799745.7145882.908069.0068936.0023051.0160847.0046097.0252759.0069142.0275735.0069142.0551471.0115233.0827177.0138284.3354764.0599204.6939411-.0576176.9214117-.3433977.0022983-.0023051.0045959-.0046096.0068935-.0092193 1.7325295-2.076505 3.2444706-3.34412 4.3589412-3.93412.1884177-.1014092.363053-.1797671.5238941-.2419944l-3.8648823 4.62088 4.8092941 4.047046 3.8625882-4.616278c-.0850176.4217556-.2550529.942643-.5468764 1.54875-.5193 1.087842-1.399353 2.438352-2.7022353 3.991704-.0022977.0046091-.0160847.0184375-.0367647.0437892-.0068936.0069142-.0091912.0161324-.0160847.0230466-.02068.0276562-.0367647.0553125-.0551471.0829658-.0183823.0299614-.0344671.057617-.0482535.0898806-.0068936.016133-.0137865.0345705-.02068.053008-.0160847.0437886-.0321694.0875796-.0413606.1313694-.0022977.0069142-.0022977.0161329-.0045953.0253517-.0114894.0553125-.0183824.1129319-.02068.1682444-.0091918.2857842.1057.5715625.3400706.769773.0045959.0046096.0114894.0092193.0183823.0138284.2320765.1866819.5239.2419944.7950589.1866819.0022976 0 .0068935-.0023046.0114888-.0023046 2.6562353-.4724602 4.6300588-.4701592 5.8593529-.2028125.2091.0437892.3929236.0967954.5560647.1521079l-5.9211764 1.046306 1.0914705 6.20208 5.9170589-1.046306c-.3354765.2673408-.797353.5577329-1.4108236.834319-1.0960588.4978125-2.6355882.965653-4.6277647 1.315995-.0045958.0023052-.0229782.0046097-.055147.0115239-.5147059.1037102-.8501765.599204-.7605883 1.115454.0022977.0069142.0022977.0138278.0045953.0230466.0068936.0299608.0183824.0553125.0252759.0829658.0022977.0069142.0045953.0115239.0045953.0184375.0160847.0483989.0321694.0944944.0551471.1382842.0091917.0207426.0206806.0391801.0321694.0599204.0160847.0276562.034467.057617.0528494.0829658.0229776.0322653.0505512.0622273.0781235.0921875.0114894.0115233.02068.0230466.0298718.0322653.0390623.0391796.0827176.07375.1286765.1060171.0275729.0184375.0505511.0391796.0804235.0553125.0022976 0 .0068935.0023046.0091912.0046091 2.3391764 1.350569 3.8465294 2.625028 4.6185882 3.620653.1309765.1682444.2389706.3272671.3285824.4747671l-5.2068236-3.016847-3.1387647 5.452898 5.2022353 3.012245c-.4319882 0-.9742353-.0760569-1.6199412-.2604319z"/><path d="m59.3658824 25.11394c.6663529 3.791222-5.0022942 4.79375-5.6686471 1.002528-.6663529-3.788921 5.0045882-4.791449 5.6686471-1.002528"/><path d="m49.1705882 7.40745c2.9388824 2.475227-.7628823 6.89769-3.7017647 4.422699-2.9388823-2.472926.7605883-6.89769 3.7017647-4.422699"/></g></g></svg>