<svg height="102" viewBox="0 0 102 102" width="102" xmlns="http://www.w3.org/2000/svg"><g fill="none" fill-rule="evenodd"><circle cx="51" cy="51" r="50" stroke="#1e7b85" stroke-width="2"/><g fill="#87064b" fill-rule="nonzero" transform="translate(30 34)"><path d="m43 33.1343965v-26.92820982c0-.45641033-.174223-.89319502-.4863837-1.21592277-.312143-.3226958-.7363967-.50456163-1.1778815-.50456163h-3.2662814v-3.34462058c0-.30486841-.1189934-.59725856-.3276656-.81295809-.210394-.21394234-.4949486-.33160949-.7898605-.32812361h-6.812111c-3.2076522.00364416-6.2929248 1.26232711-8.6398581 3.52301878-2.34711-2.26064603-5.4324709-3.51933445-8.6398582-3.52301878h-6.81211098c-.60876344 0-1.10371208.50998031-1.10371208 1.14110452v3.36424623l-3.28009986-.00178274c-.91917142 0-1.66417708.77019244-1.66417708 1.72221876v26.92820983c0 .4546257.17417901.893195.48633969 1.2159227.31214302.3226958.7363967.5045617 1.17788153.5045617h10.88701598c1.8538831 0 3.6198224.8165637 4.8563331 2.244626l.1586609.1729384c.1983238.2121578.4121658.4082728.6397998.584753.0879526.0677495.1810794.1372791.269032.1925503.1983238.1354991.4052698.2567309.6190942.3637043l.1241676.0588359c.1155454.0588358.2293646.1087534.3535322.1551065l-.0017244.0017832c.14486.0570512.2931724.1069688.4414848.1497573.1103712.0320916.2517832.0730987.4156183.1051889.2379868.0499222.4776865.0820124.7191346.0962752h.3362878c.3621545-.0017832.7225783-.039223 1.0761193-.1141026.141412-.0267429.2604054-.0588358.3224914-.0784478.1845274-.046353.3656025-.1034043.5432471-.1729384h.0482896l.2742018-.1230163.1051971-.0499222c.2345388-.1158871.4604686-.2478171.6760015-.3975745l.2259166-.1640247c.2431611-.1872013.4707995-.3940099.6794894-.6204442l.065534-.0677496.0931268-.1051888v-.0017828c1.2313453-1.4334023 3.00245-2.244626 4.8563331-2.2214404h10.887016c.4466502 0 .8743607-.1854167 1.1864905-.5134616.312143-.3298295.4846179-.7737524.4778877-1.2355028zm-35.8618569-30.85242588h5.7393028c2.8368933.00713141 5.5476984 1.19985713 7.5189282 3.30897493v1.58319617c0 .62934421.4949486 1.14102584 1.1037121 1.14102584.6087634 0 1.1037121-.51168163 1.1037121-1.14102584v-1.57959053c1.9746292-2.1126778 4.6943082-3.30719493 7.5361461-3.30897493h5.7393028v25.16327104h-5.7393028c-2.7144254.0017827-5.3547696.9039207-7.5361461 2.5726481v-1.852387c0-.6293442-.4949487-1.1410258-1.1037121-1.1410258-.6087635 0-1.1037121.5116816-1.1037121 1.1410258v1.857727c-2.1815531-1.6669474-4.8236633-2.5673081-7.5361461-2.5690881h-5.73930281zm33.6545301 30.29058478h-10.3441309c-2.4867958-.0160461-4.8580991 1.0804145-6.5030716 3.0076528l-.0344906.035657.8036348.7684125-.8433243-.7398868c-.1362378.1408437-.2845502.2692091-.4414848.3833116l-.1276156.0909261-.0017245.0017827c-.1396902.0944907-.2879982.1782831-.4414848.2496017l-.0534594.0267429-.1759052.0784478c-.1069232.0410053-.2155682.0766633-.3259394.1051889l-.1862492.0463531c-.2121202.0445712-.4276885.0677495-.6432434.0677495h-.1897016c-.1483125-.0089146-.2966249-.0285256-.4414849-.0588358-.0879526 0-.1638306-.0356571-.2517832-.0641805-.0914006-.0231769-.1810794-.0534867-.2707538-.0873615l-.1948758-.0873615-.0551856-.01248c-.1327898-.065965-.2586837-.1408437-.3811251-.2228561l-.1552084-.1087534.0017245-.0017832c-.141412-.1087535-.2742018-.2299898-.3983695-.3601352l-.0793304-.090926c-1.6555681-1.9165583-4.0216619-3.0112585-6.5066034-3.0130385h-10.34398965v-25.80133268h2.72480024l-.00172444 21.80409098c0 .3013038.1172672.5919185.32421763.8058381.20695043.2139195.48806148.3351786.77948562.3351786h6.825797c2.985188 0 5.8289242 1.3175197 7.8191379 3.619197.2086722.242468.5087229.3797471.8226186.3797471.3155911 0 .6139289-.1372791.8243405-.3797471 1.9884036-2.3016773 4.8320515-3.619197 7.817372-3.619197h6.808579c.2931725 0 .5742835-.1212317.7812075-.3351786.2069239-.2139469.3224914-.5045617.3224914-.8058381v-21.80409098h2.7368528z"/><path d="m20.708167 24.6820196c.4403694.4239739 1.1484977.4239739 1.5888401 0l6.1458539-5.962984c.996982-.9698088 1.557139-2.2863671 1.557139-3.6595672s-.560157-2.6914721-1.557139-3.6612809c-.1039281-.1012741-.2113779-.1973981-.3205909-.2849402-1.9499524-1.54826656-4.7700376-1.4641608-6.6197913.1973981-1.8478146-1.66673531-4.6730856-1.75426858-6.6247516-.2025481-.1127348.0926921-.2166628.1888161-.3205909.2900902h.0017614c-.9987407.9698088-1.5588977 2.2880808-1.5588977 3.6612809s.560157 2.6897584 1.5588977 3.6595672zm-4.5535867-11.732182c.0581307-.0566461.1215418-.115006.1902424-.1665021h-.0017614c.4738472-.3862142 1.0709812-.5956393 1.6875057-.5905905.7768334.0035257 1.5219206.3073465 2.0697219.8446215l.6094898.5939255h-.0017619c.4474177.4136782 1.1502564.4136782 1.5976785 0l.6041687-.5887403c.9969821-1.0178818 2.6246029-1.1277378 3.7554689-.255758l.1902424.1665022c1.1907507 1.1637706 1.1907507 3.0467904 0 4.210561l-5.3531023 5.1720207-5.3445345-5.1768544c-.5724676-.5578488-.8948443-1.3148446-.8948443-2.1044456s.3223496-1.5465528.8948443-2.1044456z"/></g></g></svg>