<svg height="102" viewBox="0 0 102 102" width="102" xmlns="http://www.w3.org/2000/svg"><g fill="none" fill-rule="evenodd"><circle cx="51" cy="51" r="50" stroke="#1e7b85" stroke-width="2"/><path d="m.4021081 63.834428c.16173951.0835386.2441924.0835386.40593192.0835386.24419241 0 .56767144-.1638693.72941095-.4112774l16.32008713-27.144307 5.5213236 3.9489208c.1617395.0835387.323479.1638694.4883848.1638694.1617395 0 .3234791 0 .405932-.0835387l5.8447702-3.5376435 6.3331875 2.2202398 7.7920256 12.0940227c.2441924.3277387.6501244.4112774.9735872.3277387l6.8183573-2.7953701 15.586974 15.0535747c.3234791.3277387.8118639.3277387 1.1353104 0 .3234791-.3277388.3234791-.8225548 0-1.1502606l-15.9896585-15.4681423c-.2441924-.247408-.5676714-.247408-.8943492-.1638693l-6.7391194 2.7150887-5.0329064-7.8142702 5.1153918-5.5104589 5.5213236 4.0292023c.1617395.0835386.323479.1638693.4883848.1638693.2441924 0 .405932-.0835386.5676715-.247408l2.5973148-2.6315172 13.0726317 17.1099616c.1617395.247408.4059319.3277387.6501243.3277387.1617395 0 .323479-.0835386.4883848-.1638693.3234791-.2474081.405932-.8225548.1617395-1.1502606l-18.270184-24.0177765c-.1617395-.1638693-.323479-.3277387-.5676714-.3277387s-.4883849.0835387-.6501244.247408l-10.065488 10.6932119-12.5043269-19.1696387v-10.1980339h13.9632463c.323479 0 .6501243-.1638693.7294109-.494816.1617395-.3277387.0824529-.65868541-.1617395-.90612634l-3.9768339-4.19634536 3.9768339-4.02920223c.2441924-.24740803.323479-.57514674.1617395-.90612633-.1617395-.32773872-.4059319-.49481604-.7294109-.49481604l-14.7751102.0064258c-.4883848 0-.8118638.32773872-.8118638.82255476v20.40018064l-25.00297098 41.5357251c-.16490578.3309467-.08245289.9061263.32347903 1.0699793zm49.3621338-32.2433241 3.6533873 4.7714757-2.2738682 2.3038113-4.7886977-3.4540719zm-23.058557-29.93934814h12.0163968l-3.16497 3.20664748c-.323479.32773872-.323479.82255476 0 1.15026058l3.2474554 3.3737906h-12.0983951zm3.4916641 33.55776654c-.2441925-.0835387-.4883849-.0835387-.6501244.0835387l-5.6830469 3.4540719-5.1946297-3.7014964 7.2242893-12.0907324 9.0133124 13.8995303z" fill="#87064b" fill-rule="nonzero" transform="translate(17 16)"/></g></svg>